<?xml version="1.0" encoding="UTF-8" standalone="no"?> 
<svg width="36" height="36" viewBox="0 0 9.52 9.52" version="1.1" id="svg1" xml:space="preserve" xmlns="http://www.w3.org/2000/svg" xmlns:svg="http://www.w3.org/2000/svg">
<defs id="defs1" />
<g id="layer1">
<g id="g9" style="stroke:#000000;stroke-opacity:1;stroke-width:.79;stroke-dasharray:none"> 
<path style="fill:none;stroke:#000000;stroke-width:1.05;stroke-linecap:round;stroke-linejoin:bevel;stroke-dasharray:none;stroke-dashoffset:0;stroke-opacity:1" d="m4.25,5.27-2.96,2.94" id="path8" />
<ellipse style="fill:#5454ff;fill-opacity:1;stroke:#000000;stroke-width:1.01;stroke-linecap:round;stroke-linejoin:round;stroke-dasharray:none;stroke-opacity:1" id="path1" cy="3.83" cx="5.68" rx="2.79" ry="2.79" />
</g> 
<path id="rect7" style="fill:#ffffff;fill-opacity:1;stroke:none;stroke-width:.03;stroke-linecap:round;stroke-linejoin:round;stroke-dasharray:none;stroke-opacity:1" d="m7.25,2.44c-.14,.00 -.27,.12 -.27,.27 -.00,.12 .05,.21 .16,.26 .10,.05 .18,.04 .29,-.01 .18,-.11 .16,-.40 -.03,-.50 -.04,-.02 -.09,-.03 -.14,-.03zm-3.43,.15 3.5e-4,.89c3.84e-4,.98 .00,1.06 .12,1.27 .11,.20 .30,.34 .55,.41 .18,.04 .51,.05 .68,.01 .32,-.08 .54,-.28 .65,-.60 .03,-.11 .04,-.18 .05,-.73l.01,-.60 .51,.96 .51,.96h.29 .29V4.21 3.24l-.22,-.00c-.17,-.00 -.22,3.76e-4 -.22,.01-9.65e-4,.01-2.23e-4,.30 .00,.64 .00,.33 -.00,.61 -.01,.60 -.00,-.00 -.24,-.43 -.51,-.95L6.03,2.61h-.31 -.31l-.01,.90c-.01,.97 -.00,.95 -.12,1.11 -.11,.16 -.46,.21 -.68,.10 -.12,-.05 -.21,-.16 -.24,-.30 -.01,-.04 -.01,-.42 -.01,-.91-6.1e-5,-.46 -.00,-.86 -.01,-.88 -.01,-.02 -.05,-.03 -.24,-.03z" />
</g>
</svg>